<?xml version="1.0" encoding="UTF-8" standalone="no"?>
<!-- Uploaded to: SVG Repo, www.svgrepo.com, Generator: SVG Repo Mixer Tools -->

<svg
   fill="#000000"
   version="1.1"
   id="Capa_1"
   width="538.49268"
   height="800.01666"
   viewBox="0 0 32.285328 47.965999"
   xml:space="preserve"
   sodipodi:docname="voice-recorder-svgrepo-com.svg"
   inkscape:version="1.4.2 (ebf0e940, 2025-05-08)"
   xmlns:inkscape="http://www.inkscape.org/namespaces/inkscape"
   xmlns:sodipodi="http://sodipodi.sourceforge.net/DTD/sodipodi-0.dtd"
   xmlns="http://www.w3.org/2000/svg"
   xmlns:svg="http://www.w3.org/2000/svg"><defs
   id="defs3" /><sodipodi:namedview
   id="namedview3"
   pagecolor="#ffffff"
   bordercolor="#000000"
   borderopacity="0.25"
   inkscape:showpageshadow="2"
   inkscape:pageopacity="0.0"
   inkscape:pagecheckerboard="0"
   inkscape:deskcolor="#d1d1d1"
   inkscape:zoom="0.73539105"
   inkscape:cx="269.24451"
   inkscape:cy="395.02792"
   inkscape:window-width="1512"
   inkscape:window-height="858"
   inkscape:window-x="0"
   inkscape:window-y="38"
   inkscape:window-maximized="1"
   inkscape:current-layer="Capa_1" />
<g
   id="g3"
   transform="translate(-7.8395)">
	<g
   id="g2">
		<path
   d="m 23.982,35.268 c 5.531,0 10.033,-4.635 10.033,-10.332 V 10.333 C 34.015,4.635 29.513,0 23.982,0 18.45,0 13.95,4.635 13.95,10.333 v 14.604 c 0.001,5.696 4.501,10.331 10.032,10.331 z m 5.238,-10.33 c 0,2.974 -2.35,5.395 -5.238,5.395 -2.888,0 -5.238,-2.42 -5.238,-5.395 V 10.333 c 0,-2.974 2.35,-5.395 5.238,-5.395 2.888,0 5.238,2.42 5.238,5.395 z"
   id="path1" />
		<path
   d="m 40.125,29.994 c 0,-1.361 -1.222,-2.469 -2.72,-2.469 -1.5,0 -2.721,1.107 -2.721,2.469 0,4.042 -3.621,7.329 -8.074,7.329 h -5.257 c -4.453,0 -8.074,-3.287 -8.074,-7.329 0,-1.361 -1.221,-2.469 -2.721,-2.469 -1.499,0 -2.719,1.107 -2.719,2.469 0,6.736 6.014,12.221 13.424,12.266 v 0.766 h -5.944 c -1.499,0 -2.72,1.107 -2.72,2.47 0,1.363 1.221,2.47 2.72,2.47 h 17.325 c 1.5,0 2.721,-1.107 2.721,-2.47 0,-1.363 -1.221,-2.47 -2.721,-2.47 H 26.702 V 42.26 c 7.409,-0.045 13.423,-5.53 13.423,-12.266 z"
   id="path2" />
	</g>
</g>
</svg>
